<svg id="Layer_5" enable-background="new 0 0 64 64" height="512" viewBox="0 0 64 64" width="512" xmlns="http://www.w3.org/2000/svg" xmlns:xlink="http://www.w3.org/1999/xlink"><linearGradient id="SVGID_1_" gradientUnits="userSpaceOnUse" x1="32" x2="32" y1="63" y2="1"><stop offset="0" stop-color="#9f2fff"/><stop offset="1" stop-color="#0bb1d3"/></linearGradient><path d="m18 51v-1c0-.552-.448-1-1-1h-2c-1.654 0-3-1.346-3-3v-3h3v-2h2v2c1.654 0 3 1.346 3 3h-2c0-.552-.448-1-1-1h-3v1c0 .552.448 1 1 1h2c1.654 0 3 1.346 3 3v3h-3v2h-2v-2c-1.654 0-3-1.346-3-3h2c0 .552.448 1 1 1zm-2 6c-4.963 0-9-4.037-9-9 0-2.074.724-4.1 2.038-5.702l-1.547-1.268c-1.606 1.959-2.491 4.435-2.491 6.97 0 6.065 4.935 11 11 11 2.535 0 5.011-.885 6.97-2.491l-1.268-1.547c-1.602 1.314-3.628 2.038-5.702 2.038zm-6.97-17.509 1.268 1.547c1.602-1.314 3.628-2.038 5.702-2.038 4.963 0 9 4.037 9 9 0 2.074-.724 4.1-2.038 5.702l1.547 1.268c1.606-1.959 2.491-4.435 2.491-6.97 0-6.065-4.935-11-11-11-2.535 0-5.011.885-6.97 2.491zm5.97-11.491v-5h-5c-4.963 0-9-4.038-9-9v-1h7c2.826 0 5.349 1.312 7 3.356v-.356-5h-5c-4.963 0-9-4.038-9-9v-1h7c4.963 0 9 4.038 9 9v.356c1.651-2.044 4.174-3.356 7-3.356h7v1c0 4.962-4.037 9-9 9h-5v5 .356c1.651-2.044 4.174-3.356 7-3.356h5.586l2.414-2.414 7 7 10.186-10.186-4.214-4.214 17.303-3.46-3.46 17.303-4.215-4.215-10.186 10.186h16.586c1.103 0 2 .897 2 2v4c0 1.103-.897 2-2 2h-1v2.586l1.535 1.535c.944.944 1.465 2.2 1.465 3.536v13.343c0 2.757-2.243 5-5 5h-2-12-4c-2.757 0-5-2.243-5-5v-13.343c0-1.336.521-2.592 1.465-3.536l1.535-1.535v-2.586h-1c-1.103 0-2-.897-2-2v-4c0-.178.031-.347.075-.511l-3.075-3.075-7.95 7.95c4.171 2.667 6.95 7.328 6.95 12.636 0 8.271-6.729 15-15 15s-15-6.729-15-15c0-7.934 6.195-14.431 14-14.949v-4.051zm2 3.586 2.586-2.586h-2.586zm-1 3.414c-7.168 0-13 5.832-13 13s5.832 13 13 13 13-5.832 13-13-5.832-13-13-13zm28 14h10 2c.552 0 1-.448 1-1v-2c0-.552-.448-1-1-1h-1v2h-2v-2h-2v2h-2v-2h-2v2h-2v-2h-1c-.552 0-1 .448-1 1v2c0 .552.448 1 1 1zm-3 3v2c0 .552.448 1 1 1h2 10c.552 0 1-.448 1-1v-2c0-.552-.448-1-1-1h-1v2h-2v-2h-2v2h-2v-2h-2v2h-2v-2h-1c-.552 0-1 .448-1 1zm15 9c.552 0 1-.448 1-1v-2c0-.552-.448-1-1-1h-1v2h-2v-2h-2v2h-2v-2h-2v2h-2v-2h-1c-.552 0-1 .448-1 1v2c0 .552.448 1 1 1zm2-20.586v-3.414h-18v3.414l-2.121 2.121c-.567.567-.879 1.32-.879 2.122v13.343c0 1.654 1.346 3 3 3h1.184c-.112-.314-.184-.648-.184-1v-2c0-.395.081-.77.22-1.116-1.275-.345-2.22-1.501-2.22-2.884v-2c0-1.383.945-2.539 2.22-2.884-.139-.346-.22-.721-.22-1.116v-2c0-1.654 1.346-3 3-3h12c1.654 0 3 1.346 3 3v2c0 1.383-.945 2.538-2.22 2.884.139.346.22.721.22 1.116v2c0 .395-.081.77-.22 1.116 1.275.345 2.22 1.501 2.22 2.884v2c0 .301-.058.585-.141.859 1.234-.372 2.141-1.505 2.141-2.859v-13.343c0-.802-.313-1.556-.879-2.122zm3-9.414h-24v4h24.002zm-29-11.586-1.022 1.022c-.223 4.614-3.928 8.319-8.542 8.542l-4.207 4.207c1.403.211 2.741.61 3.99 1.182l9.781-9.781 4.489 4.489c.164-.044.333-.075.511-.075h4.586l13.014-13.014 2.986 2.986 2.14-10.697-10.697 2.139 2.985 2.986-13.014 13.014zm-14.929 7.586h4.929c3.521 0 6.442-2.612 6.929-6h-4.929c-3.521 0-6.442 2.612-6.929 6zm0-12h4.929c3.521 0 6.442-2.612 6.929-6h-4.929c-3.521 0-6.442 2.612-6.929 6zm-2.142-6c-.487-3.388-3.408-6-6.929-6h-4.929c.487 3.388 3.408 6 6.929 6zm0 12c-.486-3.388-3.408-6-6.929-6h-4.929c.486 3.388 3.408 6 6.929 6z" fill="url(#SVGID_1_)"/></svg>